<svg version="1.2" xmlns="http://www.w3.org/2000/svg" viewBox="0 0 270 161" width="270" height="161">
	<title>logo-svg</title>
	<defs>
		<linearGradient id="g1" x1="0" y1="89.7" x2="269.1" y2="89.7" gradientUnits="userSpaceOnUse">
			<stop offset="0" stop-color="#0472ed"/>
			<stop offset=".9" stop-color="#0be5f5"/>
			<stop offset="1" stop-color="#0cf0f6"/>
		</linearGradient>
		<linearGradient id="g2" x1="35.6" y1="119.1" x2="198.8" y2="119.1" gradientUnits="userSpaceOnUse">
			<stop offset="0" stop-color="#0472ed"/>
			<stop offset=".9" stop-color="#0be5f5"/>
			<stop offset="1" stop-color="#0cf0f6"/>
		</linearGradient>
	</defs>
	<style>
		tspan { white-space:pre } 
		.s0 { fill: url(#g1) } 
		.s1 { fill: url(#g2) } 
	</style>
	<g id="Group_4">
		<g id="_5_Converted_">
			<path id="Path_10" fill-rule="evenodd" class="s0" d="m268.6 51q0.3 0.8 0.4 1.7q0.1 0.8 0.1 1.7q-0.1 0.9-0.3 1.7q-0.2 0.8-0.6 1.6q-0.3 0.8-0.8 1.5q-0.5 0.7-1.2 1.2q-0.6 0.6-1.4 1q-0.7 0.5-1.5 0.8q-0.8 0.2-1.6 0.3q-0.8 0.2-1.7 0.1q-0.8-0.1-1.6-0.3q-1.1-0.3-2-0.8q-1-0.6-1.8-1.4q-0.7-0.7-1.3-1.7q-0.5-0.9-0.9-2q-3.8-0.4-7.7-0.7q-3.9-0.2-7.8-0.2q-3.9 0-7.8 0.3q-3.8 0.2-7.7 0.7q-1.3 2.3-2.6 4.1q-0.8 1.2-1.6 2.1q-0.2 0.3-0.4 0.6q-0.2 0.2-0.5 0.5q-0.2 0.3-0.5 0.5q-0.2 0.3-0.4 0.5l2.2 0.2q2.1 0.1 4.2 0.6q2 0.5 4 1.3q1.9 0.7 3.7 1.9q1.9 1.1 3.4 2.5q0.6-0.2 1.2-0.3q0.6-0.1 1.2-0.1q0.5 0 1.1 0.1q0.6 0 1.2 0.2q1.5 0.4 2.8 1.4q1.2 0.9 2.1 2.2q0.8 1.3 1.2 2.9q0.3 1.5 0.1 3q-0.2 1.6-0.9 3q-0.7 1.4-1.9 2.4q-1.1 1.1-2.6 1.7q-1.4 0.5-3 0.5q-0.3 0-0.6 0q-0.2 0-0.5 0q-0.3-0.1-0.6-0.1q-0.3-0.1-0.5-0.2c-1.1-0.3-2.1-0.8-3-1.5c-0.9-0.7-1.6-1.6-2.2-2.6c-0.6-1-0.9-2.1-1.1-3.2c-0.1-1.1 0-2.3 0.3-3.4q0.1-0.3 0.2-0.7q0.1-0.3 0.3-0.6q0.1-0.4 0.3-0.7q0.2-0.3 0.4-0.6q-1.2-0.9-2.5-1.7q-1.4-0.7-2.8-1.2q-1.4-0.5-2.9-0.8q-1.5-0.3-3-0.4h-0.1l-7.9-0.8l-8.1-0.8l-22.9-2.3q-0.4 0-0.8-0.2q-0.4-0.2-0.8-0.5q-0.3-0.3-0.5-0.7q-0.2-0.4-0.3-0.9q-0.1-0.4 0-0.9q0.1-0.4 0.3-0.8q0.2-0.4 0.5-0.8q0.3-0.3 0.7-0.5l19.5-10q0.5-0.2 1-0.2q0.5 0 1 0.2q0.5 0.2 0.9 0.5q0.3 0.4 0.6 0.9q0.2 0.4 0.2 0.9q0.1 0.6-0.1 1.1q-0.1 0.5-0.4 0.9q-0.3 0.4-0.7 0.7l-11.1 5.6l19.4 2q1.4-1.1 2.5-2l1-0.9q0.2-0.1 0.3-0.3q0.2-0.1 0.3-0.3q0.2-0.1 0.3-0.3q0.2-0.1 0.3-0.3c3.8-4.2 9.1-14 10.1-22.4q0-0.4 0-0.8q0-0.4-0.2-0.7q-0.1-0.4-0.2-0.8q-0.2-0.3-0.5-0.6q-0.2-0.3-0.5-0.6q-0.3-0.2-0.7-0.4q-0.4-0.2-0.7-0.3q-0.4-0.1-0.8-0.2l-4.5-0.3q-0.4 1.5-1.2 2.8q-0.8 1.4-1.9 2.4q-1.1 1.1-2.5 1.7q-1.4 0.7-2.9 1q-1.5 0.2-3.1 0q-1.5-0.2-2.9-0.9q-1.4-0.6-2.5-1.6q-1.2-1-2-2.3c-2.6 1-4.7 3.1-6.9 5.4q-0.9 1-1.8 1.9q-0.9 0.8-1.8 1.6q-1 0.8-2 1.5q-1 0.8-2.1 1.4q-0.9 0.5-1.8 0.9q-0.9 0.4-1.9 0.8q-0.9 0.3-1.9 0.6q-1 0.3-1.9 0.5q-3.8 0.6-7.5 1.5q-3.7 0.9-7.3 2.1q-3.6 1.3-7.1 2.8q-3.5 1.6-6.8 3.4q-3.9 2.2-7.4 5q-3.5 2.7-6.6 6q-3 3.2-5.6 6.9q-2.5 3.7-4.5 7.7q0 0.1 0 0.2q-0.1 0-0.1 0.1q-0.1 0.1-0.1 0.1q0 0.1-0.1 0.1c-0.4 0.6-11.6 14.2-32.8 18.1c-20 3.6-54.8 26.9-68.5 43q0.6 1.7 0.5 3.5q-0.1 1.7-0.8 3.3q-0.7 1.7-1.9 3q-1.2 1.3-2.7 2.1q-1.6 0.7-3.3 0.9q-1.8 0.2-3.5-0.3q-1.6-0.4-3-1.4q-1.4-1.1-2.4-2.5q-1-1.5-1.4-3.2q-0.4-1.7-0.2-3.5q0.2-1.8 0.9-3.3q0.8-1.6 2.1-2.9q1.2-1.2 2.8-1.9q1.6-0.6 3.4-0.7q1.7-0.1 3.4 0.5q1.6 0.5 2.9 1.6c15-16.8 49.7-39.9 70.7-43.8q4.2-0.7 8.3-2.1q4-1.4 7.7-3.4q3.8-2 7.1-4.6q3.4-2.6 6.3-5.7q2.2-4.4 4.9-8.3q2.8-4 6.1-7.5q3.4-3.6 7.2-6.5q3.8-3 8-5.4q3.5-2 7.2-3.6q3.7-1.7 7.6-3q3.8-1.3 7.7-2.2q3.9-1 7.9-1.6q0.8-0.2 1.6-0.4q0.7-0.3 1.5-0.5q0.7-0.3 1.4-0.7q0.7-0.3 1.4-0.7q0.9-0.5 1.7-1.1q0.9-0.6 1.7-1.3q0.8-0.7 1.5-1.4q0.7-0.7 1.4-1.5c2.6-2.7 5.3-5.4 9.1-6.8q0-0.5 0-0.9q0-0.4 0-0.9q0.1-0.4 0.2-0.8q0-0.4 0.1-0.9q0.4-1.5 1.2-2.8q0.8-1.4 2-2.5q1.2-1 2.6-1.7q1.5-0.7 3-0.9q1.6-0.2 3.1 0.1q1.6 0.2 3 0.9q1.4 0.7 2.5 1.8q1.2 1.1 1.9 2.5q0.2 0.3 0.4 0.7q0.1 0.3 0.2 0.6q0.2 0.4 0.3 0.7q0.1 0.4 0.2 0.7l4.8 0.4q0.9 0 1.9 0.3q0.9 0.3 1.8 0.7q0.8 0.5 1.5 1.1q0.8 0.6 1.4 1.3q0.6 0.8 1 1.6q0.5 0.9 0.7 1.8q0.3 0.9 0.4 1.8q0.1 1 0 1.9q-0.2 1.6-0.6 3.2q-0.3 1.6-0.7 3.1q-0.4 1.5-1 3.1q-0.5 1.5-1.2 2.9q3.6-0.3 7.1-0.4q3.5-0.2 7.1-0.2q3.5 0.1 7.1 0.3q3.5 0.2 7 0.6q0.5-1.1 1.2-2.1q0.7-1 1.7-1.8q0.9-0.7 2.1-1.1q1.1-0.5 2.3-0.6q1.2-0.1 2.4 0.2q1.2 0.2 2.3 0.8q1 0.6 1.9 1.4q0.9 0.9 1.4 2q0.5 0.7 0.7 1.5zm-255.8 102.3q0.4-0.5 0.7-1.2q0.3-0.6 0.3-1.3q0-0.7-0.1-1.4q-0.2-0.7-0.6-1.3q-0.4-0.6-0.9-1q-0.6-0.4-1.2-0.7q-0.7-0.2-1.4-0.2q-0.5 0-1.1 0.2q-0.5 0.1-1 0.4q-0.5 0.3-0.9 0.7q-0.3 0.4-0.6 0.9q-0.3 0.4-0.4 1q-0.2 0.5-0.2 1.1q0 0.6 0.2 1.1q0.1 0.6 0.4 1.1q0.4 0.7 1.1 1.2q0.6 0.5 1.4 0.7q0.8 0.3 1.7 0.2q0.8-0.2 1.5-0.6q0.6-0.3 1.1-0.9zm196.4-123q0.1-0.5 0-1q-0.1-0.5-0.2-1q-0.2-0.5-0.4-1q-0.3-0.4-0.6-0.8q-0.3-0.4-0.7-0.7q-0.4-0.3-0.9-0.5q-0.4-0.3-0.9-0.4q-0.2-0.1-0.4-0.1q-0.1 0-0.3 0q-0.2-0.1-0.3-0.1q-0.2 0-0.4 0q-0.9 0-1.8 0.4q-0.9 0.4-1.6 1q-0.7 0.7-1.1 1.6q-0.5 0.8-0.5 1.8q-0.1 1 0.1 1.9q0.3 0.9 0.9 1.7q0.6 0.8 1.4 1.3q0.8 0.5 1.8 0.7q0.9 0.2 1.9 0q0.9-0.2 1.7-0.8q0.8-0.5 1.4-1.3q0.5-0.8 0.8-1.7q0.1-0.5 0.1-1zm26.2 46.1q-0.2 0-0.4 0q-0.2 0.1-0.4 0.1q-0.2 0.1-0.4 0.1q-0.1 0.1-0.3 0.2q-0.5 0.3-0.8 0.7q-0.4 0.5-0.6 1q-0.1 0.6-0.1 1.1q0 0.6 0.2 1.1q0.2 0.5 0.6 0.9q0.3 0.4 0.8 0.7q0.5 0.3 1.1 0.3q0.5 0.1 1.1-0.1q0.5-0.1 1-0.5q0.4-0.3 0.7-0.8q0.3-0.4 0.5-1q0.1-0.5 0-1.1q-0.1-0.5-0.3-1q-0.3-0.5-0.7-0.9q-0.4-0.4-0.9-0.6q-0.5-0.2-1.1-0.2zm27.6-20.7q0.4-0.5 0.6-1.1q0.1-0.6 0-1.2q0-0.6-0.3-1.1q-0.3-0.6-0.8-0.9q-0.5-0.4-1.1-0.6q-0.6-0.1-1.2-0.1q-0.6 0.1-1.1 0.4q-0.5 0.4-0.9 0.8q-0.3 0.5-0.5 1.1q-0.2 0.6-0.1 1.2q0.1 0.7 0.4 1.2q0.3 0.5 0.8 0.9q0.4 0.4 1 0.5q0.6 0.2 1.2 0.1q0.6-0.1 1.1-0.4q0.6-0.3 0.9-0.8z"/>
			<path id="Path_11" fill-rule="evenodd" class="s1" d="m190.6 77.3l8.2 0.8c-9.2 6.6-22.6 15.1-31.4 16.3l-23.2 3.2h-0.3q-1.8 0-3.5 0.5q-1.8 0.5-3.3 1.4q-1.6 0.9-2.9 2.1q-1.4 1.2-2.4 2.7l-4.7 6.9q-1.9 2.7-4.2 4.9q-2.4 2.3-5.1 4.1q-2.8 1.8-5.8 3q-3.1 1.2-6.3 1.8l-21.5 3.8q-4.6 0.8-8.9 2.5q-4.4 1.8-8.2 4.3q-3.9 2.6-7.2 6q-3.3 3.3-5.8 7.2q0.4 1.5 0.3 3.1q-0.1 1.6-0.7 3q-0.6 1.5-1.6 2.7q-1 1.2-2.4 2q-0.5 0.3-1.1 0.5q-0.6 0.2-1.2 0.4q-0.6 0.2-1.2 0.2q-0.6 0.1-1.2 0.1q-0.3 0-0.6 0q-0.3 0-0.6-0.1q-0.3 0-0.6-0.1q-0.4 0-0.7-0.1c-2.7-0.7-4.9-2.7-6.1-5.2c-1.1-2.6-1.1-5.6 0.2-8.1c1.3-2.5 3.6-4.3 6.3-5c2.8-0.6 5.7 0.1 7.9 1.8q2.9-4 6.5-7.4q3.6-3.4 7.7-6q4.2-2.6 8.8-4.4q4.6-1.8 9.5-2.7l21.5-3.8q2.7-0.5 5.2-1.5q2.6-1 4.9-2.5q2.3-1.4 4.3-3.3q1.9-2 3.5-4.2l4.7-6.9q1.4-2 3.2-3.6q1.8-1.6 3.9-2.8q2.1-1.2 4.4-1.8q2.3-0.7 4.7-0.8l23.1-3.2c6.1-0.8 15.6-6.2 23.9-11.8zm-142.9 77.2q0.3-0.3 0.5-0.6q0.3-0.3 0.4-0.7q0.2-0.4 0.3-0.7c0.5-1.9-0.4-3.9-2.1-4.8c-1.8-0.8-3.9-0.3-5.1 1.2c-1.1 1.6-1.1 3.7 0.2 5.2c1.3 1.5 3.4 1.8 5.1 0.8q0.4-0.2 0.7-0.4z"/>
		</g>
	</g>
</svg>