<svg xmlns="http://www.w3.org/2000/svg" xmlns:xlink="http://www.w3.org/1999/xlink" width="269.11" height="160.82" viewBox="0 0 269.11 160.82">
  <defs>
    <linearGradient id="linear-gradient" y1="0.5" x2="1" y2="0.5" gradientUnits="objectBoundingBox">
      <stop offset="0" stop-color="#0472ed"/>
      <stop offset="0.92" stop-color="#0be5f5"/>
      <stop offset="1" stop-color="#0cf0f6"/>
    </linearGradient>
  </defs>
  <g id="Group_4" data-name="Group 4" transform="translate(-125 -144)">
    <text id="FROG" transform="translate(125 220.651)" fill="#fff" font-size="39" font-family="Poppins-Bold, Poppins" font-weight="700" letter-spacing="-0.004em"><tspan x="0" y="0">FROG</tspan></text>
    <text id="THE" transform="translate(125 181)" fill="#fff" font-size="35" font-family="Poppins-Light, Poppins" font-weight="300" letter-spacing="-0.004em"><tspan x="0" y="0">THE</tspan></text>
    <g id="_5_Converted_" data-name="5 [Converted]" transform="translate(125.008 163.103)">
      <path id="Path_10" data-name="Path 10" d="M501.668,297.659a8.428,8.428,0,0,0-8.037-4.345,8.517,8.517,0,0,0-7.258,5.607,137.66,137.66,0,0,0-28.308-.274,45.454,45.454,0,0,0,3.429-12.309,9.517,9.517,0,0,0-2.062-7.093,9.415,9.415,0,0,0-6.616-3.472l-4.788-.341a10.778,10.778,0,0,0-1.076-2.708,10.432,10.432,0,0,0-10.5-5.32,10.613,10.613,0,0,0-8.782,7.953,10.92,10.92,0,0,0-.34,3.422c-3.834,1.453-6.47,4.153-9.091,6.844a25.975,25.975,0,0,1-6.3,5.291,20.841,20.841,0,0,1-5.872,2.267A91.152,91.152,0,0,0,375.638,303.6a64.7,64.7,0,0,0-26.181,27.682,52.987,52.987,0,0,1-29.376,15.872c-21.094,3.87-55.76,26.968-70.7,43.8a9.444,9.444,0,0,0-12.57.488,10.086,10.086,0,0,0-1.384,12.838,9.485,9.485,0,0,0,12.162,3.3,9.991,9.991,0,0,0,4.97-11.865c13.661-16.079,48.472-39.376,68.474-43.039,21.248-3.9,32.353-17.442,32.806-18.031a2.6,2.6,0,0,0,.324-.515,59.276,59.276,0,0,1,24.087-25.606,85.7,85.7,0,0,1,28.64-9.825,25.064,25.064,0,0,0,7.514-2.807,30.856,30.856,0,0,0,7.7-6.337c2.232-2.309,4.311-4.419,6.956-5.482a10.409,10.409,0,0,0,10.445,4.8,10.617,10.617,0,0,0,8.53-7.836l4.457.316a4.01,4.01,0,0,1,2.79,1.462,3.825,3.825,0,0,1,.809,2.874c-.954,8.447-6.22,18.189-10.029,22.425a15.5,15.5,0,0,1-1.238,1.238l-.971.831c-.736.606-1.569,1.279-2.491,2l-19.412-1.944L433,304.585a2.841,2.841,0,0,0,.988-3.622,2.7,2.7,0,0,0-3.415-1.361L411.024,309.61a2.82,2.82,0,0,0-1.479,3.017,2.755,2.755,0,0,0,2.426,2.282L434.86,317.2l8.088.831,7.91.789h.113a20.175,20.175,0,0,1,11.145,4.053,8.991,8.991,0,0,0-1.205,2.683,8.764,8.764,0,0,0,6,10.689,8.47,8.47,0,0,0,2.216.3,8.572,8.572,0,0,0,8.43-7.59,8.718,8.718,0,0,0-6.246-9.561,8.146,8.146,0,0,0-4.634.075,25.446,25.446,0,0,0-15.367-6.246l-2.216-.216a23.677,23.677,0,0,0,1.86-2.068c.518-.64,1.035-1.337,1.569-2.093.865-1.246,1.747-2.633,2.6-4.153a132.691,132.691,0,0,1,31.058-.075,8.568,8.568,0,0,0,5.929,5.905,8.275,8.275,0,0,0,6.47-.872,8.7,8.7,0,0,0,3.981-5.335A8.933,8.933,0,0,0,501.668,297.659ZM245.452,402.432a4.13,4.13,0,0,1-5.718-1.57,4.394,4.394,0,0,1-.01-4.3,4.163,4.163,0,0,1,3.626-2.153,4.209,4.209,0,0,1,4.045,3.184A4.351,4.351,0,0,1,245.452,402.432ZM442.8,279.511A5.094,5.094,0,0,1,437,283.3a5.209,5.209,0,0,1-4.191-5.6,5.151,5.151,0,0,1,5.063-4.783,4.818,4.818,0,0,1,1.327.183,5.107,5.107,0,0,1,3.1,2.436A5.347,5.347,0,0,1,442.8,279.511Zm26.335,45.1a3.062,3.062,0,0,1,3.008,2.709,3.114,3.114,0,0,1-2.224,3.414,3.013,3.013,0,0,1-3.587-1.82,3.156,3.156,0,0,1,1.29-3.889,2.966,2.966,0,0,1,1.5-.423Zm26.731-19.883a2.992,2.992,0,0,1-4.145-1.142,3.162,3.162,0,0,1,1.112-4.257,2.992,2.992,0,0,1,4.145,1.142,3.162,3.162,0,0,1-1.112,4.257Z" transform="translate(-233.74 -267.311)" fill="url(#linear-gradient)"/>
      <path id="Path_11" data-name="Path 11" d="M409.934,343.834l-23.064,3.2a20.943,20.943,0,0,0-16.172,9l-4.731,6.9a27.763,27.763,0,0,1-17.931,11.536l-21.5,3.816a50.748,50.748,0,0,0-32.447,20.5,9.4,9.4,0,1,0-8.263,16.456,9.6,9.6,0,0,0,2.444.323A9.3,9.3,0,0,0,293,414.294a9.415,9.415,0,0,0,4.329-10.747A45.449,45.449,0,0,1,327.5,383.511l21.5-3.808a33.117,33.117,0,0,0,21.337-13.791l4.731-6.9a15.557,15.557,0,0,1,12.127-6.7h.26l23.19-3.209c8.808-1.167,22.2-9.7,31.445-16.283l-8.169-.788C425.57,337.612,416.092,343.045,409.934,343.834ZM290.287,409.689A4.085,4.085,0,1,1,292.2,407.2a4.092,4.092,0,0,1-1.918,2.491Z" transform="translate(-243.285 -273.847)" fill="url(#linear-gradient)"/>
    </g>
  </g>
</svg>
